<?xml version="1.0" encoding="UTF-8" standalone="no"?>
<svg
   sodipodi:docname="audio-midi.svg"
   inkscape:version="1.1 (c4e8f9ed74, 2021-05-24)"
   id="svg8"
   version="1.1"
   viewBox="0 0 8.4666665 8.4666669"
   height="32"
   width="32"
   xmlns:inkscape="http://www.inkscape.org/namespaces/inkscape"
   xmlns:sodipodi="http://sodipodi.sourceforge.net/DTD/sodipodi-0.dtd"
   xmlns="http://www.w3.org/2000/svg"
   xmlns:svg="http://www.w3.org/2000/svg"
   xmlns:rdf="http://www.w3.org/1999/02/22-rdf-syntax-ns#"
   xmlns:cc="http://creativecommons.org/ns#"
   xmlns:dc="http://purl.org/dc/elements/1.1/">
  <defs
     id="defs2">
    <filter
       inkscape:collect="always"
       style="color-interpolation-filters:sRGB"
       id="filter33141"
       x="-0.081250001"
       width="1.1625"
       y="-0.069642859"
       height="1.1392857">
      <feGaussianBlur
         inkscape:collect="always"
         stdDeviation="0.21497395"
         id="feGaussianBlur33143" />
    </filter>
  </defs>
  <sodipodi:namedview
     inkscape:window-maximized="1"
     inkscape:window-y="0"
     inkscape:window-x="0"
     inkscape:window-height="994"
     inkscape:window-width="1920"
     units="px"
     showgrid="false"
     inkscape:document-rotation="0"
     inkscape:current-layer="layer1"
     inkscape:document-units="px"
     inkscape:cy="25.903534"
     inkscape:cx="10.716789"
     inkscape:zoom="18.009126"
     inkscape:pageshadow="2"
     inkscape:pageopacity="0.0"
     borderopacity="1.0"
     bordercolor="#666666"
     pagecolor="#ffffff"
     id="base"
     inkscape:pagecheckerboard="0" />
  <metadata
     id="metadata5">
    <rdf:RDF>
      <cc:Work
         rdf:about="">
        <dc:format>image/svg+xml</dc:format>
        <dc:type
           rdf:resource="http://purl.org/dc/dcmitype/StillImage" />
        <dc:title />
      </cc:Work>
    </rdf:RDF>
  </metadata>
  <g
     id="layer1"
     inkscape:groupmode="layer"
     inkscape:label="Capa 1">
    <path
       style="opacity:0.5;fill:#000000;fill-opacity:1;stroke:none;stroke-width:2.29353;filter:url(#filter33141)"
       d="M 1.0583334,0.5291668 V 7.9374999 H 7.4083333 V 2.1166666 l -1.5875,-1.5874998 z"
       id="path926-2"
       inkscape:connector-curvature="0" />
    <path
       style="opacity:1;fill:#4f4f4f;fill-opacity:1;stroke:none;stroke-width:2.29353"
       d="M 1.0583334,0.52916675 V 7.9374999 H 7.4083333 V 2.1166666 l -1.5875,-1.58749985 z"
       id="path926"
       inkscape:connector-curvature="0" />
    <path
       inkscape:connector-curvature="0"
       style="opacity:0.2;fill:#000000;fill-opacity:1;stroke:none;stroke-width:2.29353"
       d="M 5.8208333,0.52916675 V 2.1166669 h 1.5875 z"
       id="path926-1" />
    <rect
       style="fill:#ffffff;stroke-width:0.192623;fill-opacity:1"
       width="0.60476196"
       height="3.8651836"
       x="2.1166666"
       y="3.3590932"
       ry="0.18405636"
       id="rect8" />
    <rect
       style="fill:#ffffff;stroke-width:0.192623;fill-opacity:1"
       width="0.60476196"
       height="3.8651836"
       x="2.7214286"
       y="3.3590932"
       ry="0.18405636"
       id="rect12" />
    <rect
       style="fill:#ffffff;stroke-width:0.192623;fill-opacity:1"
       width="0.60476196"
       height="3.8651836"
       x="3.3261905"
       y="3.3590932"
       ry="0.18405636"
       id="rect16" />
    <rect
       style="fill:#ffffff;stroke-width:0.192623;fill-opacity:1"
       width="0.60476196"
       height="3.8651836"
       x="3.9309528"
       y="3.3590932"
       ry="0.18405636"
       id="rect20" />
    <rect
       style="fill:#ffffff;stroke-width:0.192623;fill-opacity:1"
       width="0.60476196"
       height="3.8651836"
       x="4.5357141"
       y="3.3590932"
       ry="0.18405636"
       id="rect24" />
    <rect
       style="fill:#ffffff;stroke-width:0.192623;fill-opacity:1"
       width="0.60476196"
       height="3.8651836"
       x="5.1404762"
       y="3.3590932"
       ry="0.18405636"
       id="rect28" />
    <rect
       style="fill:#ffffff;stroke-width:0.192623;fill-opacity:1"
       width="0.60476196"
       height="3.8651836"
       x="5.7452383"
       y="3.3590932"
       ry="0.18405636"
       id="rect32" />
    <path
       style="fill:#000000;stroke-width:0.192623;fill-opacity:1"
       d="m 2.6198484,3.1750369 c -0.055277,0 -0.1000069,0.058659 -0.1000069,0.1315634 v 1.9454205 c 0,0.072886 0.044733,0.1316003 0.1000069,0.1316003 h 0.2035628 c 0.055277,0 0.099606,-0.058714 0.099606,-0.1316003 V 3.3066003 C 2.9230169,3.2336583 2.8786878,3.175 2.8234112,3.175 H 2.6198484 Z m 0.6043386,0 c -0.055235,0 -0.099584,0.058659 -0.099584,0.1315634 v 1.9454205 c 0,0.072886 0.044349,0.1316003 0.099584,0.1316003 h 0.2039461 c 0.055235,0 0.099584,-0.058714 0.099584,-0.1316003 V 3.3066003 C 3.5277171,3.2336583 3.4833685,3.175 3.4281331,3.175 H 3.224187 Z m 1.2095241,0 c -0.055235,0 -0.099583,0.058659 -0.099583,0.1315634 v 1.9454205 c 0,0.072886 0.044349,0.1316003 0.099583,0.1316003 h 0.203946 c 0.055235,0 0.099584,-0.058714 0.099584,-0.1316003 V 3.3066003 C 4.7372411,3.2336583 4.6928925,3.175 4.6376571,3.175 h -0.203946 z m 0.604762,0 c -0.055235,0 -0.099583,0.058659 -0.099583,0.1315634 v 1.9454205 c 0,0.072886 0.044349,0.1316003 0.099583,0.1316003 h 0.2039461 c 0.055235,0 0.099583,-0.058714 0.099583,-0.1316003 V 3.3066003 C 5.342002,3.2336583 5.2976535,3.175 5.2424192,3.175 H 5.0384731 Z m 0.6047622,0 c -0.055235,0 -0.099583,0.058659 -0.099583,0.1315634 v 1.9454205 c 0,0.072886 0.044349,0.1316003 0.099583,0.1316003 h 0.2039459 c 0.055235,0 0.099583,-0.058714 0.099583,-0.1316003 V 3.3066003 C 5.946764,3.2336583 5.9024154,3.175 5.8471812,3.175 H 5.6432353 Z"
       id="path36" />
  </g>
</svg>
